Coordinates
version=1
nRows=17
nColumns=36
inDegrees=yes

Units are S.I. units (second, meters, Newtons, ...)
If the header above contains a line with 'inDegrees', this indicates whether rotational values are in degrees (yes) or radians (no).

endheader
time	pelvis_tilt	pelvis_list	pelvis_rotation	pelvis_tx	pelvis_ty	pelvis_tz	hip_flexion_r	hip_adduction_r	hip_rotation_r	knee_angle_r	knee_angle_r_beta	ankle_angle_r	subtalar_angle_r	mtp_angle_r	hip_flexion_l	hip_adduction_l	hip_rotation_l	knee_angle_l	knee_angle_l_beta	ankle_angle_l	subtalar_angle_l	mtp_angle_l	lumbar_extension	lumbar_bending	lumbar_rotation	arm_flex_r	arm_add_r	arm_rot_r	elbow_flex_r	pro_sup_r	arm_flex_l	arm_add_l	arm_rot_l	elbow_flex_l	pro_sup_l
      4.96666670	      8.32439303	      0.76662553	     -2.72895390	     -0.05322714	      0.87384827	      0.18920771	     31.67090582	      6.36273303	     -3.50292245	     72.69589391	      1.26878270	    -14.66311741	    -34.64351681	     -7.49999987	     32.26072947	      2.36839593	     -0.72373548	      0.78949676	      0.01377932	     -8.41676247	      7.58321213	     -7.49999987	    -27.43533323	      1.61721827	     -0.65227618	     30.70869663	     12.18976446	     62.02153700	    118.87947182	     95.31039053	     48.37400089	      9.87313698	     74.15811494	    119.02284623	     69.81953050
      4.98333330	      8.15666662	      0.56245629	     -2.74143672	     -0.05395700	      0.87187614	      0.18991333	     32.01475857	      6.90324488	     -3.37166470	     73.20323674	      1.27763750	    -11.88509471	    -34.63200964	     -7.49999987	     32.47527428	      2.24333926	     -0.69827755	      0.77153087	      0.01346575	     -8.51498572	      7.66643907	     -7.49999987	    -27.36030246	      1.61831442	     -0.77258542	     30.73520278	     12.26615269	     62.76778903	    119.20066799	     95.31518185	     48.16878458	      9.88389560	     74.42321127	    119.17269920	     70.01247968
      5.00000000	      8.11843771	      0.25668493	     -2.88350560	     -0.05462619	      0.87194524	      0.19008720	     32.06587831	      7.42332981	     -3.23892123	     73.50516477	      1.28290714	    -11.82880946	    -34.61834393	     -7.49999987	     32.55777127	      1.91916035	     -0.55430055	      0.85988980	      0.01500791	     -8.61702097	      7.81296600	     -7.49999987	    -27.53119441	      1.71977390	     -0.48917191	     30.85513564	     12.22045530	     63.17195973	    119.57120830	     95.37645063	     48.22346243	     10.15928549	     74.74343733	    119.26086182	     69.82170910
      5.01666670	      8.56855365	      0.46756134	     -2.78265122	     -0.04943970	      0.87284905	      0.18946373	     31.43708074	      7.04082601	     -3.35118023	     73.56811203	      1.28400578	    -16.56353601	    -34.62508224	     -7.49999987	     32.00360654	      2.26305937	     -0.12679561	      1.12332719	      0.01960576	     -8.79092933	      7.89397726	     -7.49999987	    -27.87571169	      1.55339681	     -0.74525204	     30.81249458	     12.08599567	     63.29620034	    119.18857330	     95.19717816	     48.06762978	      9.94699562	     74.60452969	    119.22375872	     69.52885743
      5.03333330	      8.74973925	      0.61811088	     -2.67828449	     -0.04987041	      0.87426174	      0.19037389	     31.01315917	      6.72331151	     -3.59920445	     73.24941511	      1.27844347	    -18.53913495	    -34.63575588	     -7.49999987	     31.58968704	      2.50476011	      0.07448260	      1.08129294	      0.01887212	     -9.06615442	      8.18184468	     -7.49999987	    -28.11602464	      1.39525562	     -0.89493523	     30.43262566	     12.01032392	     63.82149270	    119.06393007	     95.39255359	     47.89216608	      9.82267871	     74.76735591	    119.22011007	     69.35047200
      5.05000000	      8.58299280	      0.71460378	     -2.57720727	     -0.05017025	      0.87015929	      0.19101941	     31.17757033	      6.58967172	     -3.61507204	     73.61145076	      1.28476218	    -15.66659102	    -34.62341016	     -7.49999987	     31.72626210	      2.60257304	      0.00496534	      0.97910817	      0.01708866	     -9.09649864	      8.16636052	     -7.49999987	    -28.13358776	      1.10129207	     -0.83529748	     30.20732302	     11.99664090	     64.50162409	    119.48868166	     95.62289878	     47.79024445	     10.06647232	     75.24675491	    119.30231992	     69.37277004
      5.06666670	      8.51304013	      0.89127904	     -2.44173998	     -0.05117757	      0.86828780	      0.19174761	     31.52756006	      6.53578278	     -3.47927928	     74.43887181	      1.29920340	    -18.36303313	    -34.60988533	     -7.49999987	     31.98704574	      2.75272533	      0.30944759	      1.07834111	      0.01882060	     -9.34870116	      7.95936926	     -7.49999987	    -28.15343560	      0.75833837	     -0.80198325	     30.24101812	     12.08456532	     64.79250257	    119.76751004	     95.66334602	     47.81823346	     10.26246123	     75.49868646	    119.37391236	     69.39694563
      5.08333330	      8.77261742	      0.87122934	     -2.40406271	     -0.05074929	      0.87072555	      0.19101532	     31.24201235	      6.34855035	     -3.76013688	     74.11884887	      1.29361795	    -14.41612675	    -34.62159533	     -7.49999987	     31.80656265	      2.73794602	      0.18914349	      1.22107979	      0.02131186	     -9.34611365	      7.89091635	     -7.49999987	    -28.30959484	      0.77621532	     -0.67846198	     30.25718476	     11.98608156	     65.08642311	    119.72869767	     95.35989786	     47.86435897	     10.22538711	     75.27686862	    119.33454138	     69.09625155
      5.10000000	      9.10600671	      1.09391724	     -2.38126445	     -0.04848960	      0.87064390	      0.19064450	     30.73772411	      5.89718069	     -3.98090605	     74.00115536	      1.29156381	    -15.17603917	    -34.62397511	     -7.49999987	     31.44637903	      2.95640370	      0.40614604	      1.46609416	      0.02558817	     -9.57715326	      7.36175702	     -7.49999987	    -28.36985022	      0.56419567	     -0.85232127	     30.21974450	     11.91107330	     65.12698088	    119.47400196	     94.88773122	     47.77298778	     10.01676701	     75.01117324	    119.25596781	     68.79487639
      5.11666670	      9.20993153	      1.50440826	     -2.21192362	     -0.04946175	      0.86847799	      0.19154554	     30.99193201	      5.36095760	     -4.10419269	     74.43965831	      1.29921713	    -15.99902514	    -34.63840225	     -7.49999987	     31.42353747	      3.31732171	      0.11113909	      1.60582568	      0.02802695	     -9.55986774	      7.24550702	     -7.49999987	    -28.30911771	      0.17949615	     -1.06573425	     30.27712653	     11.90462805	     65.11411381	    119.27433130	     95.08083955	     47.83813883	      9.82936843	     74.94807819	    119.43372570	     68.67550128
      5.13333330	      9.11101565	      1.49353133	     -2.28819861	     -0.04923327	      0.87081260	      0.19257970	     31.21477414	      5.39743073	     -4.12924332	     74.56971267	      1.30148701	    -18.67248645	    -34.64409877	     -7.49999987	     31.51862566	      3.22247066	      0.25060442	      1.73217297	      0.03023212	     -9.51455180	      6.59376430	     -7.49999987	    -28.13565690	      0.10599127	     -0.93918767	     30.33866790	     11.83835326	     64.99500472	    119.05640178	     94.93965281	     47.76580624	      9.74976075	     74.85357402	    119.48420058	     68.55084696
      5.15000000	      9.09826115	      1.40409748	     -2.56747136	     -0.04871789	      0.87276294	      0.19203599	     31.05250234	      5.51135351	     -4.08470483	     74.10062692	      1.29329992	    -20.40158058	    -34.65062531	     -7.49999987	     31.41763044	      2.93298401	      0.11847248	      1.74132765	      0.03039190	     -9.35298456	      6.19532429	     -7.49999987	    -28.02915552	      0.13116288	     -0.88993394	     30.32854142	     11.87197500	     64.96660313	    118.76919223	     94.73630345	     47.71165214	      9.44102992	     74.53239777	    119.58282791	     68.35807242
      5.16666670	      9.02589705	      1.45996029	     -2.45677138	     -0.04629448	      0.87460866	      0.19272174	     30.69248591	      5.37320634	     -4.24430042	     73.12788342	      1.27632234	    -17.74230779	    -34.66079871	     -7.49999987	     31.21581277	      2.99144970	     -0.02623861	      1.64158263	      0.02865102	     -8.83327869	      5.84315474	     -7.49999987	    -27.84661634	      0.09587264	     -0.90979720	     30.16026406	     11.89054443	     64.94242973	    118.64123877	     94.80193223	     47.53623810	      9.34915319	     74.55386531	    119.67885454	     68.37965639
      5.18333330	      9.08871481	      1.68592806	     -2.45385322	     -0.04664970	      0.87420990	      0.19313816	     30.43777425	      5.18052063	     -4.14126257	     72.69223706	      1.26871888	    -13.81596439	    -34.66569259	     -7.49999987	     31.00386814	      3.12129877	     -0.82007456	      1.64953238	      0.02878977	     -7.81146312	      6.16266649	     -7.49999987	    -27.64803674	     -0.19603186	     -0.95635468	     30.18348612	     12.10106379	     65.41798727	    118.61644213	     87.95772271	     47.41692461	      9.28824707	     74.57250350	    119.93380330	     68.16345136
      5.20000000	      8.60630905	      1.20646652	     -2.28742587	     -0.04838970	      0.87618154	      0.19188680	     30.86321024	      5.60073598	     -4.46172801	     72.15208904	      1.25929152	    -12.94955864	    -34.66827428	     -7.49999987	     31.78470231	      2.76438367	     -0.04811158	      1.67370285	      0.02921163	     -7.47656437	      5.17035758	     -7.49999987	    -27.01730443	      0.47785896	     -0.78865587	     30.08022804	     12.02906414	     65.19883726	    118.80606202	     94.28794684	     47.13688911	      9.44192141	     74.46229608	    120.07884787	     68.39664913
      5.21666670	      8.29794381	      0.58934615	     -2.39217604	     -0.04862827	      0.88166980	      0.19412472	     30.48095768	      6.45384430	     -4.48200551	     70.97686206	      1.23877994	    -10.17998501	    -34.65222049	     -7.49999987	     31.71499509	      2.04714541	     -0.34782616	      1.04614760	      0.01825872	     -6.66017636	      5.69362946	     -7.49999987	    -26.52169879	      1.02347936	     -0.26641023	     30.30271374	     12.03451755	     65.34537413	    119.06704514	     94.30212371	     46.93041401	      9.62299347	     74.31567474	    120.25658674	     68.39348063
      5.23333330	      8.46306089	      0.90451988	     -2.05910081	     -0.04268214	      0.88419164	      0.19198437	     29.84747160	      6.00183459	     -4.36623355	     70.40047971	      1.22872017	     -5.61378549	    -34.64452874	     -7.49999987	     31.46138529	      2.48855969	     -0.52233418	      1.05338824	      0.01838509	     -5.99068714	      6.02990781	     -7.49999987	    -26.40893654	      0.83488602	     -0.58623649	     30.14122317	     12.12983611	     64.90425378	    118.90032071	     94.29561857	     46.93556101	      9.56994414	     74.06714114	    120.16006686	     68.35978377
